<svg width="44" height="36" viewBox="0 0 44 36" fill="none" xmlns="http://www.w3.org/2000/svg">
<g filter="url(#filter0_d_1_343)">
<path d="M30.8433 14.9295L30.053 12.9537L28.6516 9.45C27.4486 6.44273 24.5791 4.5 21.3398 4.5H12.4102C9.17156 4.5 6.30141 6.44273 5.09836 9.45L3.69703 12.9537L2.90672 14.9295C1.21078 15.5742 0 17.2027 0 19.125V22.5C0 23.6334 0.433125 24.6565 1.125 25.4482V29.25C1.125 30.4924 2.13258 31.5 3.375 31.5H5.625C6.86742 31.5 7.875 30.4924 7.875 29.25V27H25.875V29.25C25.875 30.4924 26.8826 31.5 28.125 31.5H30.375C31.6174 31.5 32.625 30.4924 32.625 29.25V25.4482C33.3169 24.6572 33.75 23.6341 33.75 22.5V19.125C33.75 17.2027 32.5392 15.5742 30.8433 14.9295ZM9.27633 11.1213C9.78891 9.84023 11.0299 9 12.4102 9H21.3398C22.7201 9 23.9611 9.84023 24.4737 11.1213L25.875 14.625H7.875L9.27633 11.1213ZM5.625 22.4859C4.275 22.4859 3.375 21.5887 3.375 20.243C3.375 18.8972 4.275 18 5.625 18C6.975 18 9 20.0187 9 21.3645C9 22.7102 6.975 22.4859 5.625 22.4859ZM28.125 22.4859C26.775 22.4859 24.75 22.7102 24.75 21.3645C24.75 20.0187 26.775 18 28.125 18C29.475 18 30.375 18.8972 30.375 20.243C30.375 21.5887 29.475 22.4859 28.125 22.4859Z" fill="#6F5E53"/>
</g>
<defs>
<filter id="filter0_d_1_343" x="0" y="0.5" width="43.75" height="35" filterUnits="userSpaceOnUse" color-interpolation-filters="sRGB">
<feFlood flood-opacity="0" result="BackgroundImageFix"/>
<feColorMatrix in="SourceAlpha" type="matrix" values="0 0 0 0 0 0 0 0 0 0 0 0 0 0 0 0 0 0 127 0" result="hardAlpha"/>
<feOffset dx="6"/>
<feGaussianBlur stdDeviation="2"/>
<feComposite in2="hardAlpha" operator="out"/>
<feColorMatrix type="matrix" values="0 0 0 0 0 0 0 0 0 0 0 0 0 0 0 0 0 0 0.25 0"/>
<feBlend mode="normal" in2="BackgroundImageFix" result="effect1_dropShadow_1_343"/>
<feBlend mode="normal" in="SourceGraphic" in2="effect1_dropShadow_1_343" result="shape"/>
</filter>
</defs>
</svg>
