<svg width="25" height="18" viewBox="0 0 25 18" fill="none" xmlns="http://www.w3.org/2000/svg">
<path d="M24.8489 8.36631C22.4952 3.77386 17.8355 0.666656 12.5 0.666656C7.16447 0.666656 2.50345 3.77603 0.151018 8.36674C0.0517306 8.56314 0 8.78014 0 9.00021C0 9.22028 0.0517306 9.43727 0.151018 9.63367C2.50475 14.2261 7.16447 17.3333 12.5 17.3333C17.8355 17.3333 22.4965 14.2239 24.8489 9.63324C24.9482 9.43683 25 9.21984 25 8.99977C25 8.7797 24.9482 8.56271 24.8489 8.36631ZM12.5 15.25C11.2638 15.25 10.0555 14.8834 9.02766 14.1967C7.99985 13.5099 7.19878 12.5338 6.72573 11.3918C6.25268 10.2497 6.12891 8.99306 6.37007 7.78068C6.61123 6.56829 7.20648 5.45465 8.08056 4.58057C8.95464 3.70649 10.0683 3.11124 11.2807 2.87008C12.493 2.62892 13.7497 2.7527 14.8917 3.22574C16.0338 3.69879 17.0099 4.49987 17.6967 5.52768C18.3834 6.55548 18.75 7.76386 18.75 8.99999C18.7504 9.82086 18.589 10.6338 18.275 11.3922C17.9611 12.1507 17.5007 12.8399 16.9203 13.4203C16.3398 14.0007 15.6507 14.4611 14.8922 14.7751C14.1338 15.089 13.3208 15.2504 12.5 15.25ZM12.5 4.83332C12.1281 4.83852 11.7586 4.89385 11.4015 4.99782C11.6958 5.39785 11.8371 5.89013 11.7996 6.38538C11.7621 6.88063 11.5484 7.34606 11.1972 7.69726C10.846 8.04845 10.3806 8.26216 9.88537 8.29962C9.39012 8.33709 8.89784 8.19583 8.49781 7.90147C8.27001 8.7407 8.31113 9.63023 8.61538 10.4449C8.91962 11.2595 9.47167 11.9582 10.1938 12.4427C10.916 12.9271 11.7719 13.1729 12.641 13.1455C13.5102 13.118 14.3489 12.8187 15.039 12.2896C15.7291 11.7606 16.236 11.0284 16.4882 10.1962C16.7404 9.36395 16.7253 8.47359 16.445 7.65041C16.1647 6.82723 15.6333 6.11268 14.9256 5.60733C14.2179 5.10198 13.3696 4.83128 12.5 4.83332Z" fill="#593D3B"/>
</svg>
