<svg width="47" height="45" viewBox="0 0 47 45" fill="none" xmlns="http://www.w3.org/2000/svg">
<g clip-path="url(#clip0_1_367)">
<path d="M46.2656 22.5C46.2656 10.459 36.0762 0.703125 23.5 0.703125C10.9238 0.703125 0.734375 10.459 0.734375 22.5C0.734375 33.3791 9.05943 42.3967 19.9429 44.0332V28.8009H14.1597V22.5H19.9429V17.6977C19.9429 12.2353 23.3394 9.21797 28.5415 9.21797C31.0329 9.21797 33.638 9.64336 33.638 9.64336V15.0047H30.7666C27.9393 15.0047 27.0571 16.6852 27.0571 18.4087V22.5H33.3709L32.3612 28.8009H27.0571V44.0332C37.9406 42.3967 46.2656 33.3791 46.2656 22.5Z" fill="#6F5E53"/>
</g>
<defs>
<clipPath id="clip0_1_367">
<rect width="47" height="45" fill="white"/>
</clipPath>
</defs>
</svg>
