<svg width="47" height="47" viewBox="0 0 47 47" fill="none" xmlns="http://www.w3.org/2000/svg">
<path d="M23.5092 12.9433C17.6709 12.9433 12.9617 17.6525 12.9617 23.4908C12.9617 29.3291 17.6709 34.0382 23.5092 34.0382C29.3475 34.0382 34.0566 29.3291 34.0566 23.4908C34.0566 17.6525 29.3475 12.9433 23.5092 12.9433ZM23.5092 30.348C19.7363 30.348 16.652 27.2728 16.652 23.4908C16.652 19.7087 19.7272 16.6335 23.5092 16.6335C27.2912 16.6335 30.3664 19.7087 30.3664 23.4908C30.3664 27.2728 27.282 30.348 23.5092 30.348ZM36.9482 12.5119C36.9482 13.8796 35.8467 14.972 34.4881 14.972C33.1203 14.972 32.0279 13.8705 32.0279 12.5119C32.0279 11.1533 33.1295 10.0517 34.4881 10.0517C35.8467 10.0517 36.9482 11.1533 36.9482 12.5119ZM43.934 15.0087C43.7779 11.7132 43.0252 8.79409 40.6109 6.38901C38.2059 3.98394 35.2867 3.2312 31.9912 3.06597C28.5947 2.87319 18.4145 2.87319 15.018 3.06597C11.7316 3.22202 8.8125 3.97476 6.39825 6.37983C3.98399 8.78491 3.24043 11.7041 3.0752 14.9996C2.88242 18.396 2.88242 28.5763 3.0752 31.9728C3.23125 35.2683 3.98399 38.1875 6.39825 40.5925C8.8125 42.9976 11.7225 43.7503 15.018 43.9156C18.4145 44.1084 28.5947 44.1084 31.9912 43.9156C35.2867 43.7595 38.2059 43.0068 40.6109 40.5925C43.016 38.1875 43.7688 35.2683 43.934 31.9728C44.1268 28.5763 44.1268 18.4052 43.934 15.0087ZM39.5461 35.6171C38.8301 37.4164 37.444 38.8025 35.6356 39.5277C32.9275 40.6017 26.5018 40.3539 23.5092 40.3539C20.5166 40.3539 14.0816 40.5925 11.3828 39.5277C9.5836 38.8117 8.19746 37.4255 7.47227 35.6171C6.39825 32.9091 6.6461 26.4834 6.6461 23.4908C6.6461 20.4982 6.40743 14.0632 7.47227 11.3644C8.18828 9.56519 9.57442 8.17905 11.3828 7.45386C14.0908 6.37983 20.5166 6.62769 23.5092 6.62769C26.5018 6.62769 32.9367 6.38901 35.6356 7.45386C37.4348 8.16987 38.8209 9.55601 39.5461 11.3644C40.6201 14.0724 40.3723 20.4982 40.3723 23.4908C40.3723 26.4834 40.6201 32.9183 39.5461 35.6171Z" fill="#6F5E53"/>
</svg>
