<svg width="47" height="47" viewBox="0 0 47 47" fill="none" xmlns="http://www.w3.org/2000/svg">
<path d="M41.125 2.9375H5.86582C4.2502 2.9375 2.9375 4.26856 2.9375 5.90254V41.0975C2.9375 42.7314 4.2502 44.0625 5.86582 44.0625H41.125C42.7406 44.0625 44.0625 42.7314 44.0625 41.0975V5.90254C44.0625 4.26856 42.7406 2.9375 41.125 2.9375ZM15.3668 38.1875H9.27148V18.5613H15.376V38.1875H15.3668ZM12.3191 15.8809C10.3639 15.8809 8.78496 14.2928 8.78496 12.3467C8.78496 10.4006 10.3639 8.8125 12.3191 8.8125C14.2652 8.8125 15.8533 10.4006 15.8533 12.3467C15.8533 14.302 14.2744 15.8809 12.3191 15.8809ZM38.215 38.1875H32.1197V28.6406C32.1197 26.3641 32.0738 23.4357 28.9527 23.4357C25.7766 23.4357 25.29 25.9143 25.29 28.4754V38.1875H19.1947V18.5613H25.0422V21.2418H25.1248C25.9418 19.6996 27.9338 18.0748 30.8988 18.0748C37.0676 18.0748 38.215 22.1414 38.215 27.4289V38.1875Z" fill="#6F5E53"/>
</svg>
